<svg width="18" height="17" viewBox="0 0 18 17" fill="none" xmlns="http://www.w3.org/2000/svg">
<path d="M17.408 13.184C17.408 14.1653 17.088 14.976 16.448 15.616C15.8507 16.2133 15.0613 16.512 14.08 16.512C13.0987 16.512 12.288 16.1707 11.648 15.488C11.008 14.8053 10.688 13.8027 10.688 12.48C10.688 10.816 11.2 8.87467 12.224 6.656C13.2907 4.43734 14.72 2.21867 16.512 0L17.856 1.216C16.5333 2.96533 15.5733 4.544 14.976 5.952C14.3787 7.31734 14.0373 8.61867 13.952 9.856H14.08C15.0613 9.856 15.8507 10.176 16.448 10.816C17.088 11.4133 17.408 12.2027 17.408 13.184ZM6.656 13.184C6.656 14.1653 6.35733 14.976 5.76 15.616C5.16267 16.2133 4.37333 16.512 3.392 16.512C2.41067 16.512 1.6 16.1707 0.96 15.488C0.32 14.8053 0 13.8027 0 12.48C0 10.816 0.512 8.87467 1.536 6.656C2.56 4.43734 3.968 2.21867 5.76 0L7.168 1.216C5.84533 2.96533 4.864 4.544 4.224 5.952C3.62667 7.31734 3.28533 8.61867 3.2 9.856H3.392C4.37333 9.856 5.16267 10.176 5.76 10.816C6.35733 11.4133 6.656 12.2027 6.656 13.184Z" fill="#F16225"/>
</svg>
